<?xml version="1.0" encoding="UTF-8"?>
<svg id="_圖層_1" data-name="圖層 1" xmlns="http://www.w3.org/2000/svg" viewBox="0 0 79.32 42.9">
  <defs>
    <style>
      .cls-1 {
        fill: #fff;
      }
    </style>
  </defs>
  <g>
    <path class="cls-1" d="M8.37,5.21C4.71,4.02.97.95.97.95l-.06,5.62c.89.78,7.45,2.66,7.45,2.66v-4.02Z"/>
    <path class="cls-1" d="M8.35,15.68v-4.15c-3.99-.71-8.35-2.12-8.35-2.12l.04,5.86c4.53.17,8.31.42,8.31.42Z"/>
    <path class="cls-1" d="M.02,22.56v10.91c1.31-1.18,2.39-4.86,2.39-4.86v-10.16C1.41,21.94.02,22.56.02,22.56Z"/>
    <path class="cls-1" d="M2.66,37.87s2.62-1.79,4.24-2.58v-18.7l-4.2-.25-.04,21.52Z"/>
    <path class="cls-1" d="M18.16,20.63l.73-1.06v-10.22s-.82-.21-1.99-.52v-1.53l-1.66-.42v1.5c-.25-.07-.5-.14-.75-.21v-1.57l-2.05-.53v1.5c-.74-.22-1.43-.45-2.01-.65l-1.37,1.31v11.16l.75,1.25h8.35ZM15.19,19.03l-.73-.03v-1.95s.73.05.73.05v1.93ZM16.94,11.25l.58.11v1.75s-.58-.09-.58-.09v-1.77ZM16.94,17.19l.58.04v1.75s-.58-.01-.58-.01v-1.77ZM15.19,12.8l-.73-.1v-1.95s.73.12.73.12v1.93ZM11.72,10.08l.71.25v2.08l-.71-.17v-2.16ZM11.72,16.95l.71.03v2.08l-.71.06v-2.16Z"/>
    <path class="cls-1" d="M18.61,28.07l.28-.87s-.17.02-.63.11c.02-.05.03-.1.03-.15l.02-2.9c0-.25-.21-.45-.46-.44-2.64.18-5.93.59-7.04.73-.21.03-.37.21-.38.42.05.23.08.48.08.73,0,.22-.02.44-.06.64l.03,2.38c0,.13.06.24.14.32l-1.63.46.82,1.03c-.97.34-1.51.56-1.51.56l.02,3.37c6.13-2.86,10.6-3.77,10.6-3.77v-2.67c-.11.02-.2.04-.29.06ZM12.46,26.08c0-.13.1-.25.23-.26.61-.08,2.34-.49,3.76-.59.16-.01.29.11.29.27v.8c0,.08-.06.15-.14.17l-3.8.84c-.17.05-.34-.08-.34-.26v-.97ZM12.66,28.71c1.06-.25,2.3-.52,3.34-.73l-.28.76c-.88.22-1.7.45-2.44.66l-.62-.7Z"/>
    <path class="cls-1" d="M24.01,25.79l2.85-.39c.61-.08,1.06-.6,1.06-1.21v-2.25c0-.32-.26-.57-.58-.55l-5.27.23c-.29.01-.53.25-.53.55l-.02,3.15c.52.03,1.2.12,2.04.35.15.04.3.08.45.11ZM23.6,22.77c0-.14.11-.26.25-.26l1.62-.05c.15,0,.27.11.27.26v.93c0,.14-.1.25-.24.26l-1.62.13c-.15.01-.28-.11-.28-.26v-1.01Z"/>
    <path class="cls-1" d="M42.32,18.06c1.59-.01,3.14-.07,4.42-.21v-5.81s-1.89.79-4.65,1.14v-2.6h-4.78l.03,2.63c-1.44-.18-2.94-.55-4.44-1.21v5.73s1.94.14,4.5.24v.05s-.42,3.33-4.45,2.21v8.18s2.39-.3,3.68-.3c.79.03,1.3-.46,1.3-.46.77-1.15,1.75-3.81,1.75-3.81l.17-.69.17.69s.98,2.66,1.75,3.81c0,0,.51.48,1.3.46,1.29,0,3.68.3,3.68.3v-8.18c-3.76,1.05-4.37-1.78-4.44-2.17Z"/>
    <path class="cls-1" d="M47.78,10.59l-.03,4.29.64-.06c1.75-.14,1.77-1.63,1.77-1.63l-.06-2.85-2.33.25Z"/>
    <path class="cls-1" d="M50.03,20.67v-3.18c0-.16-.12-.3-.28-.32l-1.61-.2c-.19-.02-.36.13-.36.32v4.62c1.64.25,2.25-1.25,2.25-1.25Z"/>
    <path class="cls-1" d="M49.57,24.04l-1.71,1.25v2.81c1.59,1.14,2.29-.71,2.29-.71v-2.93l-.29-.38c-.07-.09-.2-.11-.29-.04Z"/>
    <path class="cls-1" d="M31.08,17.8c-1.74-.8-2.73-2.4-3.2-3.37,1.44.16,2.7.29,3.36.3v-2.83s-1.66-.11-4.32-.46v-2.37c-.96-.08-3.28-.46-3.28-.46v2.35c-1.15-.18-2.39-.4-3.7-.65v3.07s1.41.2,3.25.45c-.5,1.71-1.32,2.88-1.95,3.59-1.04-.05-1.69-.08-1.69-.08v3.66c1.12-.1,5.5-.17,8.78-.21v2.95c0,2.58-2.53,2.7-4.78,2.08-1.23-.34-2.12-.38-2.68-.35-.47.03-.9.26-1.17.64-.36.5-.58,1.12-.58,1.79,0,.94.11,1.19,1.07,2.34h0c2.31-1.1,6.39-1.41,8.88-1.6,1.2-.09,2.13-1.09,2.13-2.3v-5.58c.58,0,.92,0,.92,0v-2.91c-.52,0-1.09-.02-1.69-.04h.64ZM25.71,16.81c.23.39.53.69.71.85-.37-.02-.75-.03-1.11-.05.14-.23.28-.5.4-.81Z"/>
    <path class="cls-1" d="M58.39,13.76c1-.12,1.84-.23,2.27-.32v-4.93s-6.62,1.5-10.05,1.77v4.32s1.11-.11,2.6-.27v1.63c-1.46.11-2.55.19-2.55.19v12.38c1.94-.22,9.97,1.66,9.97,1.66l.06-14.87c-.31.05-1.18.14-2.3.23v-1.8ZM54.87,14.16c.61-.07,1.24-.14,1.86-.21v1.74c-.61.05-1.24.1-1.86.15v-1.68ZM55.29,19.59l.58-.03-.3,4.46-.28-4.43ZM53.49,19.56v5.01l-.5-5.01h.5ZM58.45,27.21l-5.4-.94.03-.25,5.37.78v.42ZM58,25.16l.11-5.62h.39l-.5,5.62Z"/>
    <path class="cls-1" d="M72.19,16.76l6.96-.45v-5.6s-.82.24-2.21.59l.92-2.22c.91-.2,1.46-.33,1.46-.33l-.12-7.44s-.87.57-2.33,1.4V0c-2.14,1.54-5.84,3.34-5.84,3.34l-.04,2.26c-.72.3-1.46.6-2.22.87l-.61-1.87c-1.04.52-4.26,1.43-4.26,1.43l.66,1.69c-.91.21-1.83.37-2.73.47v3.37c.58.02,1.27,0,2.04-.07l1.3,2.2c-1.08.16-2.17.29-3.25.4v3.32l6.23-.41v1.2c-3.41.17-6.29.28-6.29.28l-.06,3.97,6.36-.16v.89c-3.41.17-6.29.28-6.29.28l-.06,3.97,3.3-.08c-.52.41-1.67,1.01-3.2.24l-.03,2.71s3.15,1.79,6.29-1.28v3.35l4.05,1.56v-4.28c1.26,2.5,4.07,7.35,6.98,7.4v-6.42s-2.01.17-4.29-3.52l4.29-.11v-4.59c-.29.16-3.44.37-6.98.57v-.78l6.98-.18v-4.59c-.29.16-3.44.37-6.98.57v-1.26ZM67.7,11.04c1.58-.24,3.24-.54,4.79-.84l-.46,2.26c-1.02.22-2.11.44-3.23.65l-1.1-2.07Z"/>
    <path class="cls-1" d="M9.94,23.92s.02.02.03.04c0,0,.01.02.02.02h0c.11.16.2.34.27.52,2.92-.44,8.55-.8,8.55-.8v-2.9l-9.76.5-.02,1.59c.19.24.4.49.63.74.1.09.19.19.28.3Z"/>
    <path class="cls-1" d="M10.43,25.7c0-.65-.19-1.24-.49-1.67-.02-.02-.03-.04-.05-.06-.08-.11-.18-.21-.27-.29-2.28-2.5-2.58-4.58-2.58-4.58l.04,6.61c0,1.31.75,2.37,1.68,2.37s1.68-1.06,1.68-2.37Z"/>
  </g>
  <g>
    <path class="cls-1" d="M6.84,40.15c-.33-.08-.64-.17-.94-.25.05-.1.1-.21.15-.33.13-.31.11-.63-.04-.92-.12-.24-.31-.41-.55-.51-.23-.09-.48-.11-.77-.07-.21.03-.4.09-.59.16-.18.07-.37.16-.55.25-.15.08-.31.17-.5.27l-.54.29.14.25c.32.56.53.94.65,1.16l.24.44c.22.41.4.74.55,1.02l.42.8.96-.52-.52-.94c-.2-.37-.36-.66-.48-.88l-.56-1.05s0,0,0,0c.1-.05.21-.11.35-.17.1-.05.21-.08.33-.11.11-.02.2-.02.28.01.07.02.11.06.14.12.04.09.06.16.06.21,0,.07-.03.14-.06.21-.04.09-.1.18-.19.28s-.15.18-.21.22l-.14.15.12.31.14.04c.63.17,1.13.32,1.5.43l.74.22c.11.03.18.05.21.06l.2.05.51-.91-.34-.1s-.28-.08-.74-.19Z"/>
    <path class="cls-1" d="M9.39,39.52c-.11-.23-.25-.53-.42-.91-.07-.15-.15-.33-.25-.55l-.39-.9h.03s-.42-.93-.42-.93l-1.04.48.42.92h.02s.11.22.11.22c.13.27.24.5.34.7l.26.55c.09.19.2.44.33.73.13.29.2.45.21.48l.11.27.96-.45-.11-.25s-.06-.13-.17-.36Z"/>
    <path class="cls-1" d="M12.2,38.09c-.31.13-.48.12-.54.11-.04,0-.13-.03-.21-.22l-.26-.62c-.04-.08-.09-.21-.15-.38l-.02-.06c.28-.12.56-.23.84-.34l.25-.1-.32-.8-.25.1c-.29.11-.57.23-.85.35l-.25-.59-.96.4.25.59-.54.23.34.79.51-.22.03.06c.07.17.14.33.19.46l.06.15c.06.16.13.31.19.45.16.38.42.61.79.68.08.02.17.03.26.03.27,0,.58-.07.96-.23l.4-.17-.19-.87-.53.2Z"/>
    <path class="cls-1" d="M16.01,36.66l-.38.11c-.19.06-.37.12-.54.15-.15.03-.31.05-.46.04-.16,0-.3-.04-.42-.11-.11-.06-.18-.15-.23-.29-.04-.11-.04-.22,0-.35.05-.14.14-.26.28-.37.11-.09.24-.17.38-.25.13-.07.31-.14.52-.22l.41-.1-.13-.31-.27-.54-.34.1c-.28.1-.56.23-.84.39-.27.17-.49.34-.65.52-.19.21-.33.45-.4.71-.08.27-.07.54.03.8.11.28.29.51.55.67.25.16.54.25.86.27.06,0,.13,0,.2,0,.17,0,.34-.02.54-.05.26-.04.52-.11.8-.21l-.09-.26.17.23.31-.12-.14-.59-.17-.25Z"/>
    <path class="cls-1" d="M19.93,34.98l-.25-.9c-.09-.32-.28-.55-.56-.68-.27-.12-.58-.13-.9-.03-.16.05-.34.14-.54.26-.11.08-.23.16-.36.26l-.41-1.34-1.04.33.09.26c.13.39.25.73.34,1.03l.61,1.91c.15.47.23.74.25.8l.08.27,1.01-.32-.67-2.07c.12-.11.24-.2.35-.28.17-.12.29-.17.35-.19.2-.06.27-.03.27-.03.02.01.08.06.14.23.03.08.06.21.11.38l.31,1.08c.04.16.07.25.08.29l.07.28,1.03-.3-.21-.69c-.06-.2-.12-.38-.17-.58Z"/>
    <path class="cls-1" d="M28.4,31.65l-.27-.66c-.11-.26-.17-.41-.18-.44l-.07-.21-.72.07-.19.07-.06.17c-.04.12-.15.45-.33,1-.16.5-.31.98-.46,1.43-.28-.34-.54-.65-.78-.94l-.26-.31c-.25-.3-.43-.52-.54-.64l-.21-.26-.86.29v.18c-.02.07-.03.5-.05,1.29-.02.78-.05,1.58-.08,2.38v.31s1.04-.07,1.04-.07v-.26c-.01-.69,0-1.38.02-2.03,0-.14,0-.27.01-.38.09.1.19.22.3.35.42.5.8.97,1.14,1.4l.1.13.76-.14.05-.16c.17-.57.34-1.14.53-1.71.05-.16.1-.29.14-.42.3.74.59,1.47.88,2.21l.1.24,1.02-.34-.11-.27c-.33-.8-.64-1.55-.93-2.26Z"/>
    <path class="cls-1" d="M33.19,32.37l-.03-.28c-.03-.28-.1-.5-.19-.69-.11-.2-.25-.37-.42-.49-.16-.11-.34-.19-.53-.23-.19-.04-.4-.05-.63-.02-.23.03-.45.09-.67.2-.22.11-.4.25-.53.42-.15.19-.26.39-.32.6-.06.21-.08.44-.04.68.03.25.12.48.27.67.14.18.3.33.48.44.22.13.47.22.75.26.16.03.32.04.5.04.15,0,.3,0,.46-.03.13-.01.25-.03.34-.04.09-.01.15-.02.18-.03l.21-.04.04-.99-.39.13-.14.02c-.09.01-.19.03-.3.04-.23.02-.38.03-.51.01-.13-.01-.25-.04-.36-.08-.16-.06-.28-.15-.36-.25-.03-.03-.05-.06-.07-.1.66-.08,1.32-.16,1.98-.22l.28-.03ZM31,31.75s.02-.03.03-.04c.1-.1.24-.16.42-.18.04,0,.08,0,.11,0,.12,0,.22.03.3.08.02.01.03.02.05.04-.31.03-.61.07-.92.11Z"/>
    <path class="cls-1" d="M37.1,31.5c-.02-.48-.04-.95-.06-1.42l-.04-1.03-1.07.05.08,1.25c-.16.02-.31.04-.47.08-.27.06-.5.14-.68.22-.35.16-.62.38-.79.64-.18.27-.26.58-.23.92.02.29.14.55.34.78.19.21.45.37.79.48.26.08.5.13.74.15.1,0,.21,0,.34,0,.19,0,.42,0,.68-.02l.5-.05-.06-1.04c-.02-.3-.04-.65-.05-1.02ZM36.12,32.75c-.12,0-.23,0-.34-.02-.16-.02-.31-.05-.44-.1-.14-.05-.25-.12-.34-.22-.08-.08-.12-.17-.13-.29-.01-.14.02-.27.09-.38.08-.12.2-.22.36-.29.12-.05.26-.1.43-.14.08-.02.18-.04.29-.05l.07,1.39s0,.07,0,.09Z"/>
    <path class="cls-1" d="M39.49,31.82c0-.18,0-.37,0-.6v-.98h.03l-.02-1.01-1.13.02.02,1.01h.02s.01.25.01.25c.01.29.02.55.03.78l.03,1.41c0,.31,0,.49,0,.52v.29s1.05-.02,1.05-.02v-.27s0-.14-.01-.4c0-.25-.02-.59-.02-1Z"/>
    <path class="cls-1" d="M43.16,30.55c-.16-.12-.36-.22-.6-.28-.22-.05-.47-.08-.74-.09-.17,0-.31,0-.42,0h-.42s-.14.93-.14.93l.84-.03c.14,0,.27.01.37.02.12.02.2.04.27.07.04.01.07.03.1.05-.16.01-.3.03-.43.05-.26.04-.45.08-.61.13-.26.09-.47.21-.63.36-.18.17-.27.39-.27.64,0,.23.08.44.22.6.13.15.29.26.51.35.14.06.3.1.51.14.19.03.37.05.56.05.17,0,.31,0,.44,0,.09,0,.17,0,.25,0l.55-.02.07-1.79c.01-.3-.02-.54-.09-.72-.08-.18-.19-.34-.35-.47ZM42.53,32.69s-.05,0-.08,0c-.13,0-.25-.01-.38-.03-.1,0-.19-.03-.28-.06-.1-.03-.17-.07-.22-.12,0,0-.03-.03-.03-.09,0-.02,0-.04.04-.07.07-.06.15-.1.23-.12.15-.05.33-.08.54-.1.07,0,.13-.01.19-.02l-.02.6Z"/>
    <path class="cls-1" d="M47.54,29.64l-.02.28c-.03.36-.05.7-.08,1.03-.03.33-.05.59-.07.8-.05.52-.09.91-.12,1.18l-.09.85,1.07.11.07-.89c.03-.3.07-.72.12-1.26l.09-.83c.04-.34.07-.63.1-.89l-.02-.28-1.05-.1Z"/>
    <path class="cls-1" d="M52.09,31c-.16-.02-.35-.02-.59,0-.12.02-.27.04-.43.09l.02-.17-1.06-.14-.03.28c-.03.28-.06.55-.09.8l-.08.66c-.05.4-.09.71-.12.91l-.02.14c-.02.13-.03.2-.03.21l-.02.26.75.1.28-.03.08-.67c.03-.29.06-.54.09-.74l.07-.53c0-.06.01-.11.02-.15.15-.04.29-.08.42-.1.17-.03.31-.04.41-.02.21.03.25.09.26.09,0,0,.04.07.02.26,0,.08-.03.21-.06.39l-.17,1.04c-.03.21-.05.33-.06.37l-.06.28,1.06.16.09-.67c.03-.23.06-.43.09-.59l.07-.39c.03-.16.06-.36.1-.58.05-.33-.02-.62-.22-.85-.19-.22-.46-.36-.8-.41Z"/>
    <path class="cls-1" d="M55.05,31.93c-.27.08-.51.22-.71.4-.21.19-.34.43-.39.7-.06.3-.02.58.12.85.12.25.31.48.59.68.19.13.4.25.64.35.23.1.5.17.78.24l.41.08.19-.57v-.3s-.4-.09-.4-.09c-.19-.04-.37-.09-.53-.15-.17-.06-.3-.13-.41-.2-.13-.09-.23-.19-.3-.31-.06-.11-.07-.22-.04-.37.02-.11.08-.21.18-.29.11-.09.25-.15.42-.17.17-.02.32-.03.46-.02.16.01.35.04.52.07.05.02.1.04.1.03l.35.05.11-.88-.37-.09c-.63-.13-1.25-.13-1.73.01ZM56.23,34.9h0Z"/>
    <polygon class="cls-1" points="57.41 35.43 58.56 35.71 58.83 34.62 57.67 34.34 57.41 35.43"/>
    <path class="cls-1" d="M63.87,33.75s-.25.05-.58.13c-.33.07-.65.15-.94.22l-.31.08.31.78.88-.16s.02,0,.04,0l-.09.28c-.14.45-.25.8-.34,1.05-.08.25-.14.4-.16.45l-.1.27,1.02.32.08-.27c.02-.05.06-.21.16-.51l.04-.13c.07-.23.13-.43.19-.6l.15-.46c.08-.26.17-.51.25-.76l.05-.15-.51-.55-.15.02Z"/>
    <path class="cls-1" d="M68.14,35.31c-.18-.14-.39-.25-.64-.34-.25-.09-.49-.14-.71-.14-.24,0-.47.03-.67.11-.19.07-.36.17-.5.3-.15.13-.27.31-.35.53-.09.26-.1.52-.02.75.07.22.18.41.34.6.15.17.31.32.49.44.01,0,.03.02.04.03-.05.02-.1.04-.14.05-.22.08-.47.17-.72.27l-.41.15.6.83,1.04-.41c.45-.18.82-.33,1.12-.47.27-.13.5-.27.67-.42.18-.16.32-.36.42-.6h0c.09-.23.12-.44.09-.64-.02-.18-.08-.36-.18-.54-.11-.2-.27-.37-.45-.5ZM66.57,36.76c-.13-.12-.22-.25-.27-.37-.04-.11-.04-.2,0-.3.02-.07.06-.13.12-.19.06-.06.12-.1.19-.12.07-.03.16-.04.27-.04.1,0,.2.02.31.06.1.04.2.09.27.15.08.06.13.12.17.19.04.07.07.15.08.23,0,.08,0,.16-.03.24h0c-.05.14-.13.25-.23.33-.09.08-.2.14-.31.2-.09-.05-.18-.1-.25-.15-.11-.07-.21-.15-.3-.24Z"/>
    <path class="cls-1" d="M72.4,37.07c-.17-.15-.37-.27-.62-.38-.23-.1-.47-.16-.71-.18-.24-.02-.47,0-.68.07-.2.06-.38.15-.52.27-.16.13-.29.29-.38.5-.11.26-.13.51-.06.75.06.22.16.43.3.62.13.17.29.33.47.48.01.01.03.02.04.03,0,0-.02,0-.03,0l-1.28.39.55.87,1.06-.35c.46-.15.84-.28,1.15-.4.29-.12.51-.24.7-.38.19-.15.35-.35.45-.58h0c.1-.22.14-.43.13-.63-.02-.19-.07-.38-.15-.54-.1-.2-.24-.38-.43-.53ZM70.74,38.43c-.13-.13-.21-.27-.25-.39-.03-.11-.03-.2.01-.3.03-.07.07-.12.13-.18.06-.06.13-.09.19-.11.06-.02.13-.03.2-.03.02,0,.04,0,.07,0,.1,0,.21.04.31.08.11.05.2.11.27.17.07.06.12.13.16.19.04.08.06.16.06.24,0,.09-.01.16-.05.24h0c-.06.13-.14.24-.25.32-.09.07-.2.13-.32.18-.09-.05-.17-.11-.25-.17-.1-.07-.19-.15-.28-.25Z"/>
    <path class="cls-1" d="M76.82,41.4c-.31-.16-.54-.29-.69-.36l-.13-.06.2-.39c.21-.39.38-.72.53-.99l.09-.16-.37-.49-.15-.14-.18.05c-.12.03-.43.12-.93.26-.56.16-1.19.35-1.94.57l-.23.07.1.76.14.06c.47.23.94.46,1.41.7l-.6,1.14.92.48.32-.63c.07-.14.17-.32.27-.52l.21.11c.16.09.36.2.59.33l.24.14.43-.8-.24-.13ZM75.34,40.01s-.04.08-.06.12l-.19.37-.52-.26c.26-.08.52-.16.77-.23Z"/>
  </g>
</svg>